<?xml version="1.0" encoding="utf-8"?>
<!-- Generator: Adobe Illustrator 24.0.1, SVG Export Plug-In . SVG Version: 6.00 Build 0)  -->
<svg version="1.1" id="Layer_1" xmlns="http://www.w3.org/2000/svg" xmlns:xlink="http://www.w3.org/1999/xlink" x="0px" y="0px"
	 viewBox="0 0 1200 1000" style="enable-background:new 0 0 1200 1000;" xml:space="preserve">
<style type="text/css">
	.st0{fill:#221F1F;}
	.st1{fill:#277038;}
</style>
<g>
	<g>
		<g>
			<path class="st0" d="M422.7,466.8H408l-2.3,5.5h-6.2l12.8-30.6h6.2l12.8,30.6h-6.1L422.7,466.8z M420.7,462l-5.4-12.9L410,462
				H420.7z"/>
			<path class="st0" d="M435.1,441.2h5.4v31.1h-5.4V441.2z"/>
			<path class="st0" d="M467.5,446.8h-9.8v-5.1h25.1v5.1H473v25.5h-5.5V446.8z"/>
			<path class="st0" d="M507.3,458.5v13.8H502v-2.8c-1.7,2.1-4.6,3.3-7.3,3.3c-4.9,0-8.6-2.9-8.6-7.3c0-4.5,4.2-7.7,9.4-7.7
				c2.1,0,4.4,0.4,6.5,1.2v-0.6c0-2.7-1.5-5.3-5.7-5.3c-2.2,0-4.3,0.8-6.2,1.7l-1.9-3.8c3.2-1.6,6.3-2.4,9.2-2.4
				C503.5,448.8,507.3,452.7,507.3,458.5z M502,465.1v-2.6c-1.7-0.6-3.6-0.9-5.7-0.9c-2.7,0-4.9,1.5-4.9,3.7c0,2.2,1.9,3.6,4.5,3.6
				C498.6,468.9,501.4,467.6,502,465.1z"/>
			<path class="st0" d="M512.8,479.1l1.2-3.9c1,0.5,2.1,0.8,2.9,0.8c1.3,0,2.3-0.4,2.9-1.5l1-2l-9.7-23.2h5.7l6.7,17.2l6.3-17.2h5.6
				l-9.7,24.6c-1.7,4.4-4.4,6.4-7.9,6.4C516.1,480.3,514.2,479.9,512.8,479.1z"/>
			<path class="st0" d="M555.5,465.7l3.4,3.6c-2,2.1-6,3.6-9.3,3.6c-6.6,0-12-5-12-12.1c0-6.9,5.2-12,11.7-12
				c7.1,0,11.3,5.4,11.3,13.9h-17.4c0.7,3.2,3.1,5.4,6.4,5.4C551.7,468.1,554.2,467.1,555.5,465.7z M543.2,458.5h12.1
				c-0.6-2.9-2.6-4.9-5.8-4.9C546.5,453.6,544,455.5,543.2,458.5z"/>
			<path class="st0" d="M572.2,449.3h5.2v4.5h-5.2v18.5h-5.3v-18.5h-3.3v-4.5h3.3v-2.4c0-3.9,2.7-6.6,6.5-6.6c1.7,0,3.6,0.7,4.9,1.8
				l-1.6,3.5c-0.5-0.5-1.3-0.8-2.3-0.8c-1.3,0-2.3,1.1-2.3,2.7V449.3z"/>
			<path class="st0" d="M593.4,457c0-8.6,7.3-15.8,16.1-15.8c8.7,0,16,7.2,16,15.8c0,8.6-7.3,15.8-16,15.8
				C600.7,472.9,593.4,465.6,593.4,457z M619.8,457c0-5.8-4.7-10.7-10.3-10.7c-5.7,0-10.4,4.9-10.4,10.7c0,5.9,4.8,10.8,10.4,10.8
				C615,467.8,619.8,462.9,619.8,457z"/>
			<path class="st0" d="M628.2,449.3h5.7l6.7,16.7l6.5-16.7h5.8l-9.7,23h-5.1L628.2,449.3z"/>
			<path class="st0" d="M672,465.7l3.4,3.6c-2,2.1-6,3.6-9.3,3.6c-6.6,0-12-5-12-12.1c0-6.9,5.2-12,11.7-12
				c7.1,0,11.3,5.4,11.3,13.9h-17.4c0.7,3.2,3.1,5.4,6.4,5.4C668.2,468.1,670.7,467.1,672,465.7z M659.7,458.5h12.1
				c-0.6-2.9-2.6-4.9-5.8-4.9C662.9,453.6,660.5,455.5,659.7,458.5z"/>
			<path class="st0" d="M695.5,448.8v4.6c-4.9,0-8.2,2.9-8.2,7.3v11.6h-5.4v-23h5.4v4.5C688.8,450.7,691.7,448.8,695.5,448.8z"/>
			<path class="st0" d="M698,469.4l2.4-3.8c2.2,1.6,4.8,2.7,7.7,2.7c2.2,0,3.7-0.9,3.7-2.4c0-1.8-2-2.4-4.6-3.1
				c-5-1.3-8.1-2.7-8.2-6.8c0-4.3,3.6-7.3,8.7-7.3c3.2,0,6.3,1.1,8.8,2.8l-2.3,4c-2.2-1.4-4.5-2.1-6.5-2.1c-1.9,0-3.4,0.8-3.4,2
				c0,1.5,1.2,1.9,4.7,2.9c3.9,1.1,8.1,2.4,8.1,7.2c0,4.4-3.6,7.3-9,7.3C704.5,472.9,700.7,471.6,698,469.4z"/>
			<path class="st0" d="M738.5,465.7l3.4,3.6c-2,2.1-6,3.6-9.3,3.6c-6.6,0-12-5-12-12.1c0-6.9,5.2-12,11.7-12
				c7.1,0,11.3,5.4,11.3,13.9h-17.4c0.7,3.2,3.1,5.4,6.4,5.4C734.7,468.1,737.2,467.1,738.5,465.7z M726.2,458.5h12.1
				c-0.6-2.9-2.6-4.9-5.8-4.9C729.5,453.6,727,455.5,726.2,458.5z"/>
			<path class="st0" d="M768.1,458.5v13.8h-5.3v-2.8c-1.7,2.1-4.6,3.3-7.3,3.3c-4.9,0-8.6-2.9-8.6-7.3c0-4.5,4.2-7.7,9.4-7.7
				c2.1,0,4.4,0.4,6.5,1.2v-0.6c0-2.7-1.5-5.3-5.7-5.3c-2.2,0-4.3,0.8-6.2,1.7l-1.9-3.8c3.2-1.6,6.3-2.4,9.2-2.4
				C764.4,448.8,768.1,452.7,768.1,458.5z M762.8,465.1v-2.6c-1.7-0.6-3.6-0.9-5.7-0.9c-2.7,0-4.9,1.5-4.9,3.7
				c0,2.2,1.9,3.6,4.5,3.6C759.4,468.9,762.2,467.6,762.8,465.1z"/>
			<path class="st0" d="M772.5,469.4l2.4-3.8c2.2,1.6,4.8,2.7,7.7,2.7c2.2,0,3.7-0.9,3.7-2.4c0-1.8-2-2.4-4.6-3.1
				c-5-1.3-8.1-2.7-8.2-6.8c0-4.3,3.6-7.3,8.7-7.3c3.2,0,6.3,1.1,8.8,2.8l-2.3,4c-2.2-1.4-4.5-2.1-6.5-2.1c-1.9,0-3.4,0.8-3.4,2
				c0,1.5,1.2,1.9,4.7,2.9c3.9,1.1,8.1,2.4,8.1,7.2c0,4.4-3.6,7.3-9,7.3C779,472.9,775.2,471.6,772.5,469.4z"/>
			<path class="st0" d="M830,467.3v5.1h-21.2v-30.6h5.5v25.5H830z"/>
			<path class="st0" d="M834,442.7c0-1.6,1.4-3.1,3.1-3.1c1.7,0,3.1,1.4,3.1,3.1c0,1.6-1.4,3.1-3.1,3.1
				C835.4,445.8,834,444.4,834,442.7z M834.3,449.3h5.4v23h-5.4V449.3z"/>
			<path class="st0" d="M880.8,457.7v14.6h-5.3v-13.8c0-3-1.8-5.2-4.5-5.2c-3,0-5,2-5,4.8v14.1h-5.3v-13.8c0-3-1.8-5.2-4.5-5.2
				c-2.9,0-5,2-5,4.8v14.1h-5.4v-23h5.4v3.1c1.2-2.2,3.5-3.6,6.4-3.6c3.2,0,5.9,1.6,7.3,4.4c1.1-2.7,4-4.4,7.4-4.4
				C877.2,448.8,880.8,452.5,880.8,457.7z"/>
			<path class="st0" d="M886.3,442.7c0-1.6,1.4-3.1,3.1-3.1c1.7,0,3.1,1.4,3.1,3.1c0,1.6-1.4,3.1-3.1,3.1
				C887.7,445.8,886.3,444.4,886.3,442.7z M886.6,449.3h5.4v23h-5.4V449.3z"/>
			<path class="st0" d="M911.1,471c-1.3,1.1-3.2,1.8-4.9,1.8c-3.8,0-6.5-2.8-6.5-6.6v-12.4h-3.3v-4.5h3.3V443h5.3v6.3h5.2v4.5H905
				v11.8c0,1.6,1,2.7,2.3,2.7c0.9,0,1.8-0.4,2.3-0.8L911.1,471z"/>
			<path class="st0" d="M932,465.7l3.4,3.6c-2,2.1-6,3.6-9.3,3.6c-6.6,0-12-5-12-12.1c0-6.9,5.2-12,11.7-12
				c7.1,0,11.3,5.4,11.3,13.9h-17.4c0.7,3.2,3.1,5.4,6.4,5.4C928.2,468.1,930.7,467.1,932,465.7z M919.8,458.5h12.1
				c-0.6-2.9-2.6-4.9-5.8-4.9C923,453.6,920.6,455.5,919.8,458.5z"/>
			<path class="st0" d="M964.7,441.2v31.1h-5.4v-3.6c-1.8,2.6-4.6,4.1-8,4.1c-6.1,0-10.5-5-10.5-12.1c0-7,4.5-12,10.5-12
				c3.4,0,6.1,1.5,8,4.1v-11.7H964.7z M959.3,460.8c0-4.3-2.7-7.4-6.5-7.4c-3.9,0-6.6,3.1-6.6,7.4c0,4.3,2.8,7.4,6.6,7.4
				C956.6,468.2,959.3,465.1,959.3,460.8z"/>
		</g>
		<g>
			<path class="st1" d="M420.6,533.6c-0.8,2.5-2.2,5.2-4.4,7.9c-2,2.5-4.2,4.4-6.4,5.9l-10.3-10.1c3.9-0.3,7.8-1.7,11.4-3.9
				c4.3-2.7,6.4-5.7,6.4-9.1c0-4.6-1.4-11-4.1-19.1h10.3c0.1,2.9,0.4,7.6,1,14.3c1.1,8,3.6,11.9,7.3,11.9v7c-2.5,0-4.5-0.3-5.9-0.8
				C424.3,536.8,422.5,535.5,420.6,533.6z"/>
			<path class="st1" d="M433.1,506.1h-2.4v-6.9c4.4,0,7.3-0.2,8.6-0.6c1.5-0.5,3.9-1.9,7.3-4.4v4.1c-2.3,2.8-4.2,4.7-5.8,5.7
				C438.7,505.4,436.2,506.1,433.1,506.1z M442.2,532.4c-2.3,3.9-6.1,5.9-11.5,5.9v-7c4.9-0.1,7.3-2.5,7.3-7.2c0-2.3-1-5.8-2.9-10.5
				h10.4c0.2,2,0.6,5.4,1.2,9.9c0.8,5.2,3.1,7.8,6.9,7.8v7C448,538.3,444.2,536.3,442.2,532.4z"/>
			<path class="st1" d="M476,534.5c-1.3,3.2-3.3,4.9-6.2,4.9c-4.3,0-7.8-1.8-10.7-5.3c-0.6,1.4-1,2.3-1.4,2.6
				c-1,1.2-2.7,1.7-4.9,1.7v-7c1.3,0.1,2.1-1.3,2.4-4.3c0.3-3,0.5-4.8,0.6-5.3c0.3-2,0.8-3.5,1.5-4.6c1.4-2.4,4.1-3.5,8.3-3.5
				c4.2,0,7.7,2.8,10.3,8.5c0.6,1.5,1.6,3.5,2.9,6.1c1.2,2.3,2.6,3.4,4.4,3.2v7C480.1,538.3,477.7,537,476,534.5z M466.6,524.9
				c-0.8,0-1.4,0.3-1.9,0.8c-0.5,0.5-0.7,1.1-0.7,1.9c0,0.7,0.2,1.3,0.7,1.9c0.5,0.5,1.1,0.8,1.8,0.8s1.3-0.3,1.8-0.8
				c0.5-0.5,0.7-1.1,0.7-1.9c0-0.7-0.2-1.3-0.7-1.9C467.9,525.1,467.3,524.9,466.6,524.9z"/>
			<path class="st1" d="M494,532.4c-2.3,3.9-6.1,5.9-11.5,5.9v-7c4.9-0.1,7.3-2.5,7.3-7.2c0-2.3-1-5.8-2.9-10.5h10.4
				c0.2,2,0.6,5.4,1.2,9.9c0.8,5.2,3.1,7.8,6.9,7.8v7C499.8,538.3,496,536.3,494,532.4z M487.4,552.9V546h2.5c3,0,5.6,0.7,7.7,2.1
				c1.5,1,3.5,2.9,5.8,5.6v4c-2.4-2.1-4.9-3.5-7.4-4.1C494.3,553.1,491.4,552.9,487.4,552.9z"/>
			<path class="st1" d="M504.3,538.3v-7c5.7-0.1,9-1.8,9.9-5c-0.5-3.6-2.1-8.7-5-15.5c-2.4-5.7-3.7-11-3.7-15.9l9.3-8.9
				c0,8,0.5,14,1.5,18c0.9,3.8,1.9,7.5,2.9,11.2c1,4.3,1.4,8.1,1.4,11.5c0,3.3-1.4,6.1-4.2,8.2C513.6,537.2,509.6,538.3,504.3,538.3
				z"/>
			<path class="st1" d="M568.6,535.7c-1.8,10.1-5.7,17.3-11.7,21.4l-10.1-5c9.7-4.9,14.6-13.2,14.6-24.7c0-2.9-0.9-7.6-2.7-14.1h8.4
				c0.2,2.2,0.8,5.7,1.8,10.3c1.3,4.8,3.5,7.4,6.4,7.6v7C572.6,538.3,570.4,537.4,568.6,535.7z M559.2,508.1c-1.2,0-2.2-0.4-3-1.2
				c-0.8-0.8-1.2-1.9-1.2-3.1c0-1.2,0.4-2.1,1.2-3c0.8-0.8,1.8-1.2,3-1.2c1.2,0,2.1,0.4,3,1.2c0.8,0.8,1.2,1.8,1.2,3
				c0,1.2-0.4,2.2-1.2,3C561.3,507.7,560.3,508.1,559.2,508.1z"/>
			<path class="st1" d="M586,532.4c-2.3,3.9-6.1,5.9-11.5,5.9v-7c4.9-0.1,7.3-2.5,7.3-7.2c0-2.3-1-5.8-2.9-10.5h10.4
				c0.2,2,0.6,5.4,1.2,9.9c0.8,5.2,3.1,7.8,6.9,7.8v7C591.9,538.3,588.1,536.3,586,532.4z M579.5,552.9V546h2.5c3,0,5.6,0.7,7.7,2.1
				c1.5,1,3.5,2.9,5.8,5.6v4c-2.4-2.1-4.9-3.5-7.4-4.1C586.4,553.1,583.5,552.9,579.5,552.9z"/>
			<path class="st1" d="M633.5,538.5c-3.2,0-6.2-1.5-8.7-4.5c-1.8,3-4.1,4.5-7,4.5c-2.5,0-4.4-0.4-5.8-1.3c-1.4-0.9-2.9-2.5-4.4-5
				c-1.7,3.1-3.3,4.9-4.8,5.5c-1,0.4-3.1,0.6-6.4,0.6v-7c4.8,0,7.1-2.5,7.1-7.5c0-2.3-1-5.9-2.9-10.7h10.2
				c1.3,12.4,3.7,18.6,7.2,18.6c1.4,0,2.1-1,2.1-3c0-2.6-1.4-7.8-4.3-15.4h9.1c0.5,4.2,1.1,7.7,1.9,10.3c1.5,5.4,3.5,8.1,6.1,8.1
				c1.2,0,1.7-0.9,1.7-2.6c0-1.7-0.6-4.4-1.9-7.9c-1.2-3.3-2.3-5.9-3.5-8h9.1c2.3,7,3.4,12.7,3.4,17.2c0,2.5-0.7,4.5-2.2,5.9
				C638,537.8,636,538.5,633.5,538.5z"/>
			<path class="st1" d="M669,535.7c-1.8,10.1-5.7,17.3-11.7,21.4l-10.1-5c9.7-4.9,14.6-13.2,14.6-24.7c0-2.9-0.9-7.6-2.7-14.1h8.4
				c0.2,2.2,0.8,5.7,1.8,10.3c1.3,4.8,3.5,7.4,6.4,7.6v7C673,538.3,670.8,537.4,669,535.7z"/>
			<path class="st1" d="M674.8,538.3v-7c3.7,0,6.6-0.5,8.8-1.3c2.5-1,4.9-2.7,7.3-5.1c-4.5-0.9-7.7-2.1-9.5-3.6
				c-2.3-1.9-3.4-4.7-3.4-8.4c0-3.2,1-6.3,3.1-9.5c2.3-3.5,4.9-5.2,7.9-5.2c4.5,0,8.1,1.5,10.9,4.5c2.8,3,4.2,6.8,4.2,11.2
				c0,7-2.6,12.9-7.9,17.6C690.8,536,683.8,538.3,674.8,538.3z M681,494c-1.2,0-2.2-0.4-3-1.2c-0.8-0.8-1.2-1.8-1.2-3
				c0-1.2,0.4-2.2,1.2-3c0.8-0.8,1.8-1.2,3-1.2c1.2,0,2.2,0.4,3,1.2c0.8,0.8,1.2,1.8,1.2,3c0,1.2-0.4,2.2-1.2,3
				C683.1,493.6,682.1,494,681,494z M692.7,510.3c-0.7,0-1.4,0.3-2,0.8c-0.6,0.5-0.9,1.1-0.9,1.8c0,2,1.2,3.1,3.5,3.4
				c0.1,0,0.8,0.1,2.1,0.2c0-0.2,0.1-0.5,0.2-1.1c0.1-0.3,0.1-0.6,0.1-0.8c0-1.1-0.2-2-0.6-2.7C694.6,510.8,693.7,510.3,692.7,510.3
				z"/>
			<path class="st1" d="M720.9,560.3l-11.8-5.8c3.9-1.4,7.7-3.5,11.4-6.2c4.2-3.1,7.1-6.3,8.7-9.6c-12.3,0-18.5-4.9-18.5-14.6
				c0-3,1.2-5.5,3.6-7.7c2.4-2.2,5.2-3.3,8.2-3.3c4.4,0,7.7,2.1,10.1,6.4c1.9,3.5,2.9,7.6,2.9,12.4c0,4.7-1.4,9.9-4.3,15.7
				C728.2,553.7,724.8,557.9,720.9,560.3z M725.8,524.2c-0.7,0.1-1.4,0.4-1.9,1c-0.5,0.6-0.8,1.2-0.7,2c0.2,2,1.5,3,3.9,3.1
				c0.1,0,0.8,0,2.1,0c0-0.2,0.1-0.5,0.1-1.1c0.1-0.4,0.1-0.7,0-0.9c-0.1-1-0.4-1.9-0.9-2.7C727.8,524.6,726.9,524.1,725.8,524.2z"
				/>
			<path class="st1" d="M751.2,537.8c0-5,0-8.3-0.2-10c-0.3-3.5-1-6.7-2.2-9.8c-1.5-3.7-3-7.4-4.5-11.2c-1.4-4-2.1-8-2.2-12l9.3-8.9
				c0,7.6,0.5,13.6,1.5,17.8c1.7,7.2,2.8,11.9,3.1,13.9c1,5.1,1.4,9.8,1.4,14.2L751.2,537.8z"/>
			<path class="st1" d="M833.6,537.2c-2.1-0.8-3.7-1.7-4.8-2.6c-2.8,2-6.6,3.6-11.2,4.7c-4.1,1-8.1,1.5-12,1.5
				c-7.6,0-14-1.1-19.2-3.3c-7-3-10.5-7.7-10.5-14.1c0-4.3,1.7-8,5.1-11.2c3.3-3.1,7.1-4.6,11.5-4.6c2.6,0,5.6,0.9,8.9,2.6
				c3.1,1.6,5.7,3.4,8,5.5l-10.5,10.5c-3.1-2.6-4.9-4.1-5.4-4.4c-2.3-1.5-4.4-2.3-6.4-2.3c-1.2,0-2.5,0.4-3.9,1.1
				c-1.7,0.9-2.5,1.8-2.5,2.9c0,1.3,1.1,2.8,3.3,4.4c5.4,4.1,12.9,6.2,22.5,6.2c8.7,0,14.8-1,18.2-3c-6.9-3.7-10.4-8.6-10.4-14.6
				c0-2.7,0.9-5.2,2.7-7.3c1.9-2.3,4.2-3.4,6.8-3.4c4.3,0,7.9,1.6,10.8,4.9c2.9,3.1,4.3,6.9,4.3,11.2c0,2.6-0.7,5.1-2.2,7.4
				c1.6,1.3,3.6,1.9,5.9,2v7C838.7,538.4,835.7,538,833.6,537.2z M817.4,496.5c-1.2,0-2.2-0.4-3-1.2c-0.8-0.8-1.2-1.8-1.2-3
				c0-1.2,0.4-2.2,1.2-3c0.8-0.8,1.8-1.2,3-1.2c1.2,0,2.2,0.4,3,1.2c0.8,0.8,1.3,1.8,1.3,3c0,1.2-0.4,2.2-1.2,3
				C819.6,496,818.6,496.5,817.4,496.5z M828.2,518c-0.8,0-1.4,0.3-2,0.8c-0.6,0.5-0.9,1.2-0.9,1.9c0,2.1,1.2,3.2,3.6,3.5
				c0.1,0,0.7,0.1,1.8,0.2c0.3-0.2,0.5-0.5,0.6-1.1c0.1-0.4,0.1-0.7,0.1-0.9c0-1.1-0.2-2.1-0.7-2.9C830.2,518.5,829.3,518,828.2,518
				z"/>
			<path class="st1" d="M844.5,509.5l-2.7-3.2c0.8-0.3,1.4-0.7,1.9-1c1.3-0.8,1.9-1.6,2-2.6c-0.5-0.1-1.2-0.2-2.1-0.3
				c-0.5-0.1-0.9-0.2-1.2-0.3c-0.6-0.3-0.9-0.9-0.9-2c0-1.4,0.8-3,2.3-4.8c1.4-1.7,2.9-2.9,4.4-3.6l5.1,2.2c-4.1,1.9-6.2,3.5-6.2,5
				c0.2,0.5,0.6,0.7,1,0.7c0.5,0,1.3-0.1,2.3-0.4c1-0.3,1.8-0.4,2.3-0.4c0.9,0,1.3,0.4,1.3,1.1C854,501.5,850.8,504.7,844.5,509.5z
				 M841.5,538.3v-7c5.4,0,8.2-1.1,8.2-3.1c0-3.4-2.1-8.2-6.4-14.4h10.3c2.5,5.7,3.7,10.9,3.7,15.5
				C857.3,535.2,852.1,538.3,841.5,538.3z"/>
			<path class="st1" d="M879,537.8c-1.1-0.3-2.2-0.9-3.2-1.7c-2-1.7-4.3-7.1-6.9-16.1c-2.3-9.2-3.4-17.6-3.5-25.2l9.1-8.8
				c0,9,0.3,17,1,24.1c1.2,14.3,4,21.3,8.5,21.1h1.8v7C882.4,538.3,880.1,538.1,879,537.8z"/>
			<path class="st1" d="M912.8,533.5c-6.3,2.9-12.4,4.4-18.1,4.4v13.6l-8.7-6.4l1.7-6.9h-2.6v-7h4c0.3-2.2,1-5.5,1.9-9.9
				c-0.4-3.2-1.8-10-4.1-20.4c-0.7-3.1-1-5.1-1-6v-3.1l9-7.9c0,11.1,0.5,20.6,1.5,28.6c1.5-3.8,3.8-6.9,7.1-9.1
				c3.1-2.1,6.3-3.2,9.7-3.2c3.9,0,7,1.7,9.4,5c2.2,3,3.3,6.5,3.3,10.6c0,4.2-1.8,8.2-5.3,12.1c2.8,2.1,5.4,3.2,7.8,3.3v7
				C922.1,538.3,916.9,536.7,912.8,533.5z M909.2,512.2c-3.4,0-6.4,2.2-9.1,6.7c-2.2,3.8-3.5,7.6-3.9,11.5c4.1,0,8.2-1,12.3-2.9
				c4.9-2.4,7.4-5.3,7.4-8.9C915.8,514.3,913.6,512.2,909.2,512.2z"/>
			<path class="st1" d="M927.1,538.3v-7c5.7-0.1,9-1.8,9.9-5c-0.5-3.6-2.1-8.7-5-15.5c-2.4-5.7-3.7-11-3.7-15.9l9.3-8.9
				c0,8,0.5,14,1.5,18c0.9,3.8,1.9,7.5,2.9,11.2c1,4.3,1.4,8.1,1.4,11.5c0,3.3-1.4,6.1-4.2,8.2C936.4,537.2,932.4,538.3,927.1,538.3
				z"/>
			<path class="st1" d="M958.4,537.8c0-5,0-8.3-0.2-10c-0.3-3.5-1-6.7-2.2-9.8c-1.5-3.7-3-7.4-4.5-11.2c-1.4-4-2.1-8-2.2-12l9.3-8.9
				c0,7.6,0.5,13.6,1.5,17.8c1.7,7.2,2.8,11.9,3.1,13.9c1,5.1,1.4,9.8,1.4,14.2L958.4,537.8z"/>
		</g>
	</g>
	<g>
		<path class="st1" d="M256.6,435c-0.9,2.2-2,4.4-3.1,6.5c-0.2,0.4-0.4,0.8-0.6,1.2c0,0.1,0,0.2,0,0.2c0.2,0.4,0.4,0.7,0.6,1.1
			c0,0,0,0,0.1,0.1c0.2-0.2,0.3-0.5,0.5-0.7c0.1-0.2,0.3-0.4,0.4-0.5c0.1-0.1,0.2-0.1,0.3-0.1c0.6,0.2,1.1,0.4,1.6,0.8
			c0.1,0.1,0.2,0.2,0.2,0.3c0,0.4-0.1,0.7-0.2,1.1c-0.2,0.6-0.5,1.1-0.8,1.6c0,0.1,0,0.1,0,0.2c0.6,0.8,1.2,1.6,1.8,2.4
			c0.7,1,1.4,1.9,2.1,2.9c0.6,0.8,1.1,1.7,1.6,2.5c0.3,0.5,0.6,1.1,0.8,1.8c0.1,0.4,0.1,0.8,0,1.2c-2.5-2.1-4.9-4.1-7.3-6.1
			c-0.2,0.2-0.4,0.3-0.7,0.5c0.1-0.3,0.1-0.5,0.2-0.7c0-0.1,0-0.2-0.1-0.3c-0.1-0.1-0.2-0.2-0.3-0.3c-0.1-0.1-0.1-0.1-0.2,0
			c-0.2,0.2-0.5,0.3-0.7,0.5c0.1-0.3,0.2-0.6,0.3-0.9c0-0.1,0-0.1-0.1-0.2c-0.2-0.1-0.5-0.3-0.7-0.5c-0.1-0.1-0.2,0-0.2,0
			c-0.3,0.2-0.5,0.4-0.8,0.6c0.1-0.4,0.2-0.7,0.3-1c0-0.1,0-0.1,0-0.2c-0.5-0.3-0.9-0.6-1.4-0.9c0,0,0,0-0.1,0
			c-0.2,0.4-0.4,0.8-0.6,1.2c-0.8,1.5-1.6,3-2.4,4.5c-0.6,1.2-1.3,2.4-1.9,3.6c0,0.1-0.1,0.2,0,0.2c0.7,1.3,1.4,2.7,2.1,4
			c0.2,0.4,0.4,0.9,0.7,1.3c0,0,0,0.1,0,0.2c-0.1,0.3-0.3,0.7-0.5,1.1c-0.4-0.3-0.7-0.5-1-0.8c-1.3-1-2.6-2-4-3.1
			c-0.1-0.1-0.2-0.1-0.3-0.1c-2-0.5-3.9-1-5.9-1.5c0,0-0.1,0-0.1,0c0.1-0.3,0.2-0.6,0.3-0.9c0,0,0.1-0.1,0.1-0.1
			c0.9-0.2,1.7-0.4,2.6-0.6c1-0.2,2-0.4,3-0.7c0.1,0,0.2-0.1,0.2-0.1c0.3,0,0.4-0.2,0.5-0.5c0.7-1.8,1.5-3.7,2.2-5.5
			c0.5-1.3,1-2.5,1.5-3.8c0,0,0-0.1,0-0.1c-0.4-0.1-0.8-0.2-1.1-0.4c-0.2-0.1-0.4-0.1-0.6-0.2c-0.1,0-0.1,0-0.2,0.1
			c-0.3,0.3-0.5,0.6-0.8,1c0-0.4,0-0.7,0.1-1c0-0.3,0-0.3-0.3-0.4c-0.2-0.1-0.4-0.1-0.6-0.2c-0.1,0-0.1,0-0.2,0.1
			c-0.2,0.2-0.4,0.4-0.6,0.7c0-0.3,0-0.6,0-0.9c-0.3-0.1-0.5-0.1-0.7-0.2c0,0-0.1,0-0.1,0.1c-0.1,0.1-0.2,0.3-0.4,0.4
			c0-0.2,0-0.4,0-0.5c-2-0.4-3.9-0.8-5.9-1.2v27.7c0.6-3.3,1.3-6.4,2.2-9.2c-1.1,8.8-0.1,22.7,3.5,35.8c0.9,3.3,2,6.5,3.2,9.6
			c0.6,1.5,1.3,2.8,2.1,4.1c8.5,13.5,27.8,16.3,39.8,4.8c1.7-1.6,3.4-3.4,5-5.4c6.4-7.9,11.8-18.4,14.9-32.9c0.9-4.1,1.6-8.4,2-13.1
			c0.1-1.2,0.1-2.4,0.1-3.5c0.1-8.8-2.1-15.1-6-17.1c-1-0.5-2.2-0.8-3.4-0.8c-4.4,0-10.3,2.9-16.6,8.3c-9.5,8.1-18.9,20.7-26.3,35.4
			c-0.7,1.3-1.3,2.6-1.9,4l-2.4,5.4c-1.4,3.4-2.7,6.9-3.8,10.2c-0.1-0.2-0.2-0.5-0.3-0.7c-1.2-2.8-2.2-5.9-3.1-9.2
			c-0.5-1.7-0.9-3.5-1.3-5.2c0.5-1.4,1.1-2.9,1.6-4.3l2.4-5c8-15.8,18.1-29.3,28.6-38.2c11.6-9.9,22.7-13.1,31-8.8
			c7.7,3.9,11.7,13.3,11.5,26.7c0,1.1-0.1,2.3-0.2,3.5c-0.6,7.7-2,14.6-4.1,20.9c0,0.1,0,0.1-0.1,0.2c-0.1,0.2-0.1,0.4-0.2,0.5
			c-0.1,0.3-0.2,0.6-0.3,1c-0.1,0.4-0.3,0.8-0.4,1.1c-0.1,0.4-0.3,0.7-0.4,1.1c-0.1,0.3-0.2,0.6-0.3,0.9
			c-5.2,13.3-13.2,23.6-22.2,31.9c-13.8,12.7-34.7,10.6-45.9-2.6c-2.2-2.5-3.9-5.5-5.3-8.8c-0.4-1-0.8-2.1-1.1-3.1
			c-1.1-3.2-1.9-6.4-2.5-9.6v21.7c0.3-2,0.7-4,1.1-6c1.3,2.9,3.1,5.6,5.1,8.1c0.6,0.8,1.3,1.5,2,2.2c-0.2,1.5-0.3,2.9-0.4,4.3
			c-0.6,8.2,0.6,14.7,3.2,18.3c0.8,1,1.7,1.8,2.7,2.3c1.8,0.9,4.1,1,6.7,0.3c10-1.9,23.8-12,36.4-23.3c1.5-1.3,3-2.6,4.5-3.9
			c0.9-0.9,1.9-1.7,2.8-2.6c1.8-1.7,3.6-3.4,5.4-5.1c0.7-0.7,1.3-1.3,2-2c0.9-0.9,1.8-1.8,2.7-2.7c5.5-5.6,10.9-11.5,16.1-17.5
			c0.1-0.1,0.2-0.2,0.2-0.2c0-5.3,0.3-10.8,0.9-16.5c0.6-5.8,1.6-11.3,3-16.7c1.4-5.4,3.3-10.3,5.7-14.8c2.4-4.5,5.5-8.1,9.3-10.9
			c1-0.7,2-1.3,2.9-1.7h-90.3C257.2,433.4,256.9,434.2,256.6,435z"/>
		<path class="st1" d="M237.9,441.8c1.3-0.1,2.7-0.2,4-0.3c0.8-0.1,1.7-0.1,2.5-0.2c0.1,0,0.2-0.1,0.2-0.2c0.3-0.7,0.6-1.4,1.1-2
			c0.1-0.1,0.1-0.1,0.2-0.2c0.1-0.1,0.3-0.2,0.5-0.1c0.5,0.1,1.1,0.3,1.5,0.6c0.2,0.1,0.3,0.3,0.2,0.6c-0.1,0.4-0.2,0.9-0.3,1.3
			c0.3,0,0.7-0.1,1-0.1c0.3,0,0.4-0.1,0.5-0.4c1-2.3,2.1-4.5,3.1-6.8c0.2-0.5,0.5-1,0.8-1.5h-17.9v9.5
			C236.1,442,237,441.9,237.9,441.8z"/>
		<path class="st1" d="M349.1,444.4c-0.9,1.2-1.8,2.8-2.6,4.8c-0.8,2-1.6,4.2-2.3,6.6c-0.7,2.4-1.3,4.7-1.9,6.9
			c-0.6,2.2-1,4.2-1.3,5.9c-0.3,1.7-0.5,2.8-0.6,3.4l-0.6,2.8c1.6-2.4,3.1-4.8,4.6-7.3c1.5-2.4,2.9-5,4.1-7.5c0.5-1,1.1-2.3,1.8-3.9
			c0.7-1.6,1.4-3.2,1.9-4.8c0.6-1.6,0.9-3.2,0.9-4.7c0-1.5-0.4-2.8-1.3-3.8v0.3C351,442.7,350,443.2,349.1,444.4z"/>
		<path class="st0" d="M339.3,566.7c-1.9-1.5-3.4-3.5-4.6-6c-1.2-2.6-1.9-5.5-2.1-8.8c-0.1-2.8-0.4-6.3-0.8-10.7
			c-0.3-3.2-0.6-6.4-0.9-9.8c-0.1-1.3-0.2-2.5-0.3-3.8c-1.3,1-2.7,1.8-4,2.5c-0.5,0.2-0.9,0.5-1.4,0.7c-1.9,0.9-3.7,1.2-5.4,1.1
			c-1.7-0.1-2.9-0.7-3.8-1.8c-0.8-1.2-1.2-2.3-1.2-3.5c0-0.1,0-0.3,0-0.4c0-1,0.3-1.9,0.8-2.7c0.6-0.8,1.4-1,2.5-0.6
			c1.1,0.5,2.6,0.2,4.7-1c0.8-0.5,1.7-1.1,2.6-1.8c1.3-1,2.7-2.3,4.2-3.8l11.4-11.7c2.1-2.8,4.2-5.1,6.3-6.7
			c2.1-1.6,4.1-2.7,5.9-3.4c1.8-0.7,3.5-0.9,4.9-0.8c1.4,0.1,2.5,0.6,3.4,1.2c1,0.9,1.6,2.2,1.8,3.8c0.2,1.6,0.1,3.1-0.3,4.6
			c-0.4,1.5-1.1,2.7-2.1,3.7s-2.2,1.2-3.6,0.7c-1.1-0.3-2.3-0.2-3.7,0.4c-1.4,0.6-2.8,1.4-4.2,2.5c-1.4,1.1-2.7,2.3-4.1,3.7
			c-1,1-1.9,2-2.7,3c-0.2,0.3-0.5,0.6-0.7,0.9c0.2,2.6,0.3,5.2,0.5,7.8c0.1,2.6,0.3,4.9,0.4,7.1c0.2,2.2,0.3,4.1,0.4,5.8
			c0.1,1.7,0.2,3,0.3,3.9c0.2,2.9,0.6,5.3,1.1,7.2c0.2,0.6,0.4,1.2,0.6,1.8c0.8,2.1,2.1,3.2,4,3.3c0.7,0.1,1.4,0,2.1-0.2
			c1-0.3,1.9-0.9,2.7-1.8c1.5-1.5,2.8-3.5,4-6c0.3-0.6,0.6-1.3,0.9-1.9c0.8-2,1.5-4.1,2.1-6.5c0.8-3.1,1.4-6.2,1.7-9.3
			c0.2-2.1,0.8-3.7,1.7-4.7s1.8-1.5,2.7-1.3c1,0.1,1.8,0.8,2.6,2c0.3,0.5,0.6,1.1,0.8,1.7v-94.3h-14.8c1.2,0.5,2.3,1.1,3.2,2
			c1.8,1.6,3.2,3.6,4.1,6.2c0.9,2.6,1.2,5.2,0.8,7.9c-0.5,3.2-1.3,6.4-2.6,9.5c-1.3,3.1-2.8,6.1-4.5,9.1c-1.7,3-3.5,5.9-5.5,8.6
			c-2,2.8-3.9,5.4-5.9,8c-1.1,1.6-2.2,3.1-3.4,4.5c-1.2,1.4-2.3,2.9-3.4,4.4l-0.5,0.6c0.1,0.3,0.1,0.7,0.2,1l0.2,3.6l0.2,3.3
			c-0.8,0.9-1.6,1.9-2.4,2.9l-8.8,9.1l-0.7-6.7l-0.3,0.3c0,0-0.1,0.1-0.3,0.3c-16,18.9-33.3,34.6-48.5,44c-5,3.1-9.8,5.5-14.2,7.1
			c-7.3,2.6-13.7,3.1-18.5,0.8c-1.4-0.7-2.7-1.6-3.8-2.6c-0.1-0.1-0.1-0.1-0.2-0.2c-2.6-2.6-4.4-6.2-5.4-10.5v21.5h105.1
			C340,567.2,339.7,567,339.3,566.7z"/>
		<path class="st1" d="M369.6,540.7c-0.4,2.4-1.1,4.8-1.9,7c-0.4,1.1-0.8,2.1-1.2,3.1c-0.8,1.9-1.7,3.7-2.8,5.4
			c-0.7,1.2-1.6,2.4-2.4,3.5c-2.1,2.7-4.6,4.9-7.5,6.7c-0.6,0.3-1.1,0.6-1.6,0.9h17.9v-30.2C370,538.4,369.8,539.6,369.6,540.7z"/>
	</g>
</g>
</svg>
